<!DOCTYPE svg PUBLIC "-//W3C//DTD SVG 1.1//EN" "http://www.w3.org/Graphics/SVG/1.1/DTD/svg11.dtd">
<!-- Uploaded to: SVG Repo, www.svgrepo.com, Transformed by: SVG Repo Mixer Tools -->
<svg fill="#a8a8a8" height="800px" width="800px" version="1.1" id="Layer_1" xmlns="http://www.w3.org/2000/svg" xmlns:xlink="http://www.w3.org/1999/xlink" viewBox="0 0 298.482 298.482" xml:space="preserve" stroke="#a8a8a8">
<g id="SVGRepo_bgCarrier" stroke-width="0"/>
<g id="SVGRepo_tracerCarrier" stroke-linecap="round" stroke-linejoin="round"/>
<g id="SVGRepo_iconCarrier"> <g> <g> <g> <path d="M104.576,260.202c-8.056-2.416-15.764-5.764-22.904-9.952c-1.128-0.672-2.596-0.292-3.252,0.848 c-0.668,1.132-0.288,2.588,0.848,3.252c7.468,4.384,15.524,7.88,23.944,10.408c0.228,0.068,0.456,0.1,0.684,0.1 c1.028,0,1.972-0.668,2.284-1.696C106.548,261.906,105.836,260.578,104.576,260.202z"/> <path d="M74.572,245.63c-16.944-12.124-29.632-29.772-35.716-49.684c-0.384-1.256-1.72-1.956-2.968-1.58 c-1.26,0.384-1.964,1.712-1.58,2.968c6.388,20.916,19.704,39.436,37.504,52.16c0.416,0.3,0.896,0.448,1.38,0.448 c0.74,0,1.472-0.348,1.932-1C75.888,247.874,75.644,246.39,74.572,245.63z"/> <path d="M285.704,1.042c-2.432-1.196-5.192-1.368-7.764-0.488c-2.58,0.876-4.656,2.7-5.852,5.132l-66.328,134.9 c-0.008,0.016-0.004,0.032-0.012,0.048H14.032l-3.288,2.54c-2.42,9.244-3.648,18.672-3.648,28.036 c0,71.364,58.716,127.272,133.668,127.272c80.328,0,143.252-55.908,143.252-127.272c0-9.352-1.228-18.784-3.644-28.028 l-3.288-2.544H228.44l61.908-125.98C292.816,9.622,290.732,3.518,285.704,1.042z M13.892,171.206c0-0.472,0.036-0.944,0.04-1.416 l120.032,0.296h0.004c0.012,0,0.024-0.008,0.036-0.008c0.288,0.1,0.604,0.168,0.956,0.176c19.12-0.748,29.108,1.816,30.564,4.68 c0.772,1.5,0.832,3.308,0.696,5.256l-152-0.588C14.028,176.826,13.892,174.034,13.892,171.206z M140.764,291.678 c-65.712,0-118.224-45.152-125.872-105.276l150.788,0.584c0.008,3.66,1.64,7.42,4.168,9.432c1.772,1.416,3.916,1.896,6,1.384 c4.136-1.04,5.688-5.176,6.936-8.492c1.18-3.132,2.004-5.048,3.532-5.176c0.508-0.04,0.944,0.112,1.376,0.496 c1.192,1.076,2.064,3.652,2.12,6.26c0.084,3.796,0.232,10.86,5.796,12.94c0.804,0.3,1.64,0.448,2.472,0.448 c1.208,0,2.432-0.312,3.62-0.944c2.656-1.412,4.86-4.36,5.616-7.512c0.524-2.184,0.588-4.356,0.644-6.452 c0.052-1.948,0.096-3.788,0.516-5.492c0.444-1.812,1.772-3.608,3.232-4.368c0.776-0.404,1.484-0.476,2.152-0.216 c2.088,0.808,2.344,3.864,2.492,8.428c0.16,4.888,0.364,10.968,6.036,12.444c2.148,0.552,4.324,0.072,6.136-1.352 c2.668-2.1,4.416-6.108,4.416-10.032l42.948-0.552C266.784,247.438,210.716,291.678,140.764,291.678z M274.428,147.434 c1.852,7.864,2.788,15.852,2.788,23.772c0,3.448-0.196,6.848-0.5,10.216l-44.136,0.568c-0.056-2.112,0.124-4.044,1.148-5.528 c2.084-3.012,4.332-2.932,8.784-2.484c3.424,0.336,7.292,0.716,11.476-1.156c1.208-0.544,1.744-1.964,1.204-3.172 c-0.54-1.208-1.976-1.764-3.168-1.204c-3.012,1.352-5.944,1.064-9.044,0.752c-4.42-0.42-9.424-0.928-13.196,4.54 c-2.472,3.576-2.12,7.86-1.816,11.644c0.092,1.1,0.184,2.204,0.2,3.276c0.036,2.444-1.084,5.188-2.604,6.384 c-0.852,0.68-1.544,0.604-1.968,0.484c-2.056-0.536-2.3-3.364-2.448-7.956c-0.16-4.776-0.356-10.724-5.548-12.74 c-1.944-0.76-4.116-0.608-6.104,0.432c-2.676,1.388-4.904,4.328-5.676,7.472c-0.544,2.208-0.6,4.392-0.656,6.508 c-0.052,1.932-0.096,3.76-0.508,5.456c-0.436,1.824-1.756,3.632-3.208,4.404c-0.772,0.404-1.476,0.492-2.164,0.232 c-2.316-0.868-2.6-4.864-2.676-8.548c-0.072-3.144-1.076-7.348-3.704-9.716c-1.408-1.268-3.116-1.876-4.984-1.712 c-4.656,0.384-6.3,4.752-7.624,8.264c-1.156,3.08-2.036,5.132-3.62,5.524c-0.404,0.108-1.036,0.168-1.84-0.48 c-1.408-1.12-2.432-3.636-2.384-5.852c0.024-1.184,0.164-2.4,0.3-3.604c0.368-3.308,0.792-7.048-0.956-10.46 c-3.576-6.996-20.976-7.796-35.024-7.288c-0.024,0.004-0.048,0.016-0.072,0.02c-0.232-0.076-0.468-0.148-0.728-0.148 l-119.884-0.3c0.36-5.884,1.224-11.776,2.596-17.6H274.428z M223.324,140.25c-0.06,0.124-0.064,0.256-0.1,0.38h-12.188 l1.632-3.316c0.228,0.068,17.064-10.104,17.064-10.104L223.324,140.25z M233.852,118.826c-0.004,0.004-0.012,0.004-0.016,0.008 l-17.828,11.684l8.956-18.208c0.188,0.048,16.56-9.092,16.56-9.092L233.852,118.826z M244.872,96.406l-16.644,9.268l8.472-17.232 l16.612-9.216L244.872,96.406z M256.608,72.53l-16.58,9.144l9.124-18.56c0.032,0.004,0.056,0.024,0.092,0.024 c0.42,0,16.732-9.676,16.732-9.676L256.608,72.53z M269.02,47.258l-16.32,8.64l8.56-17.404c0.004,0.004,0.012,0.008,0.02,0.008 c0.42,0,16.832-9.74,16.832-9.74L269.02,47.258z M286.076,12.554l-4.96,10.092c-0.692-0.32-16.272,8.552-16.272,8.552 L276.36,7.782c0.632-1.292,1.736-2.26,3.116-2.732c1.372-0.468,2.836-0.38,4.132,0.256 C286.284,6.626,287.392,9.878,286.076,12.554z"/> </g> </g> </g> </g>
</svg>